<mxfile host="app.diagrams.net" agent="Mozilla/5.0 (Windows NT 10.0; Win64; x64) AppleWebKit/537.36 (KHTML, like Gecko) Chrome/128.0.0.0 Safari/537.36 OPR/114.0.0.0" version="24.8.0">
  <diagram name="Página-1" id="4SnPLlvvTdEyuR4azF8n">
    <mxGraphModel dx="545" dy="698" grid="1" gridSize="10" guides="1" tooltips="1" connect="1" arrows="1" fold="1" page="1" pageScale="1" pageWidth="827" pageHeight="1169" math="0" shadow="0">
      <root>
        <mxCell id="0" />
        <mxCell id="1" parent="0" />
        <mxCell id="GdszHvZnIfR97uHFxOpT-1" value="Início" style="strokeWidth=2;html=1;shape=mxgraph.flowchart.start_1;whiteSpace=wrap;" vertex="1" parent="1">
          <mxGeometry x="230" y="60" width="100" height="60" as="geometry" />
        </mxCell>
        <mxCell id="GdszHvZnIfR97uHFxOpT-2" value="Nome" style="html=1;strokeWidth=2;shape=manualInput;whiteSpace=wrap;rounded=1;size=26;arcSize=11;" vertex="1" parent="1">
          <mxGeometry x="230" y="160" width="100" height="60" as="geometry" />
        </mxCell>
        <mxCell id="GdszHvZnIfR97uHFxOpT-3" value="Sobrenome" style="html=1;strokeWidth=2;shape=manualInput;whiteSpace=wrap;rounded=1;size=26;arcSize=11;" vertex="1" parent="1">
          <mxGeometry x="230" y="260" width="100" height="60" as="geometry" />
        </mxCell>
        <mxCell id="GdszHvZnIfR97uHFxOpT-4" value="Nome&lt;div&gt;Sobrenome&lt;/div&gt;" style="strokeWidth=2;html=1;shape=mxgraph.flowchart.display;whiteSpace=wrap;" vertex="1" parent="1">
          <mxGeometry x="230" y="360" width="100" height="60" as="geometry" />
        </mxCell>
        <mxCell id="GdszHvZnIfR97uHFxOpT-5" value="Fim" style="strokeWidth=2;html=1;shape=mxgraph.flowchart.start_1;whiteSpace=wrap;" vertex="1" parent="1">
          <mxGeometry x="230" y="460" width="100" height="60" as="geometry" />
        </mxCell>
        <mxCell id="GdszHvZnIfR97uHFxOpT-6" style="edgeStyle=orthogonalEdgeStyle;rounded=0;orthogonalLoop=1;jettySize=auto;html=1;exitX=0.5;exitY=1;exitDx=0;exitDy=0;exitPerimeter=0;entryX=0.5;entryY=0.167;entryDx=0;entryDy=0;entryPerimeter=0;" edge="1" parent="1" source="GdszHvZnIfR97uHFxOpT-1" target="GdszHvZnIfR97uHFxOpT-2">
          <mxGeometry relative="1" as="geometry" />
        </mxCell>
        <mxCell id="GdszHvZnIfR97uHFxOpT-7" style="edgeStyle=orthogonalEdgeStyle;rounded=0;orthogonalLoop=1;jettySize=auto;html=1;exitX=0.5;exitY=1;exitDx=0;exitDy=0;entryX=0.5;entryY=0.217;entryDx=0;entryDy=0;entryPerimeter=0;" edge="1" parent="1" source="GdszHvZnIfR97uHFxOpT-2" target="GdszHvZnIfR97uHFxOpT-3">
          <mxGeometry relative="1" as="geometry" />
        </mxCell>
        <mxCell id="GdszHvZnIfR97uHFxOpT-8" style="edgeStyle=orthogonalEdgeStyle;rounded=0;orthogonalLoop=1;jettySize=auto;html=1;exitX=0.5;exitY=1;exitDx=0;exitDy=0;entryX=0.5;entryY=0;entryDx=0;entryDy=0;entryPerimeter=0;" edge="1" parent="1" source="GdszHvZnIfR97uHFxOpT-3" target="GdszHvZnIfR97uHFxOpT-4">
          <mxGeometry relative="1" as="geometry" />
        </mxCell>
        <mxCell id="GdszHvZnIfR97uHFxOpT-9" style="edgeStyle=orthogonalEdgeStyle;rounded=0;orthogonalLoop=1;jettySize=auto;html=1;exitX=0.5;exitY=1;exitDx=0;exitDy=0;exitPerimeter=0;entryX=0.5;entryY=0;entryDx=0;entryDy=0;entryPerimeter=0;" edge="1" parent="1" source="GdszHvZnIfR97uHFxOpT-4" target="GdszHvZnIfR97uHFxOpT-5">
          <mxGeometry relative="1" as="geometry" />
        </mxCell>
      </root>
    </mxGraphModel>
  </diagram>
</mxfile>
